<?xml version="1.0" standalone="no"?>
<!DOCTYPE svg PUBLIC "-//W3C//DTD SVG 1.1//EN" "http://www.w3.org/Graphics/SVG/1.1/DTD/svg11.dtd" >
<svg xmlns="http://www.w3.org/2000/svg" xmlns:xlink="http://www.w3.org/1999/xlink" version="1.1">
<metadata>
Created by FontForge 20170731 at Wed Nov 11 21:23:49 2020
 By Aleksey,,,
URW Software, Copyright 1994 by URW
</metadata>
<defs>
<font id="AlternateGotNo3D" horiz-adv-x="839" >
  <font-face 
    font-family="Alternate Gothic No3 D"
    font-weight="500"
    font-stretch="normal"
    units-per-em="2048"
    panose-1="0 0 0 0 0 0 0 0 0 0"
    ascent="1638"
    descent="-410"
    x-height="1018"
    cap-height="1366"
    bbox="-190 -362 1516 1733"
    underline-thickness="131"
    underline-position="-331"
    unicode-range="U+0020-FB02"
  />
<missing-glyph horiz-adv-x="313" 
 />
    <glyph glyph-name=".notdef" horiz-adv-x="313" 
 />
    <glyph glyph-name=".null" horiz-adv-x="0" 
 />
    <glyph glyph-name="nonmarkingreturn" horiz-adv-x="682" 
 />
    <glyph glyph-name="space" unicode=" " horiz-adv-x="313" 
 />
    <glyph glyph-name="exclam" unicode="!" horiz-adv-x="444" 
d="M285 412h-127l-49 954h225zM322 219v-219h-199v219h199z" />
    <glyph glyph-name="quotedbl" unicode="&#x22;" horiz-adv-x="741" 
d="M274 819h-153l-35 547h223zM618 819h-153l-35 547h223z" />
    <glyph glyph-name="numbersign" unicode="#" horiz-adv-x="903" 
d="M594 977l74 389h135l-74 -389h113l-25 -139h-115l-59 -326h123l-27 -139h-123l-69 -373h-135l69 373h-172l-69 -373h-136l70 373h-113l29 139h109l61 326h-119l31 137h115l71 391h136l-72 -389h172zM569 838h-174l-61 -326h174z" />
    <glyph glyph-name="dollar" unicode="$" 
d="M362 1509h109v-127q159 -18 277 -151l-142 -139q-41 56 -84.5 81t-99.5 25q-69 0 -109.5 -42t-40.5 -114q0 -82 54 -139q23 -25 48 -44t113 -79q164 -116 225.5 -210t61.5 -230q0 -152 -79 -245.5t-224 -112.5v-156h-109v156q-179 21 -307 194l142 133q66 -82 115 -112.5
t114 -30.5q66 0 104.5 44.5t38.5 119.5q0 85 -55 149q-27 30 -57 54.5t-119 87.5q-151 107 -207.5 194.5t-56.5 212.5q0 141 78 237.5t210 116.5v127z" />
    <glyph glyph-name="percent" unicode="%" horiz-adv-x="1099" 
d="M440 1141v-254q0 -238 -188 -238q-191 0 -191 238v254q0 121 47 180t144 59q95 0 141.5 -59t46.5 -180zM184 1163v-297q0 -61 15 -84.5t53 -23.5q37 0 51 23.5t14 84.5v297q0 62 -14 85.5t-51 23.5q-38 0 -53 -24t-15 -85zM776 1366h113l-565 -1366h-113zM1038 479v-254
q0 -121 -46.5 -180t-141.5 -59q-97 0 -144 59t-47 180v254q0 238 191 238q188 0 188 -238zM782 500v-297q0 -61 15 -85t53 -24q37 0 51 23.5t14 85.5v297q0 61 -14 84.5t-51 23.5q-38 0 -53 -23.5t-15 -84.5z" />
    <glyph glyph-name="ampersand" unicode="&#x26;" horiz-adv-x="960" 
d="M690 633l184 -23q-12 -191 -108 -340q45 -61 139 -86v-204q-64 3 -132.5 39t-125.5 96q-70 -70 -131.5 -99.5t-136.5 -29.5q-131 0 -221 97.5t-90 238.5q0 94 42.5 185.5t139.5 205.5q-49 101 -69.5 176t-20.5 153q0 149 79 243.5t205 94.5q111 0 182.5 -78.5
t71.5 -201.5q0 -118 -82 -236q-33 -48 -137 -176q26 -64 72.5 -142.5t83.5 -123.5q44 84 55 211zM391 866q117 135 117 267q0 53 -21 81.5t-59 28.5q-41 0 -65.5 -37.5t-24.5 -101.5q0 -115 53 -238zM342 530q-66 -98 -66 -182q0 -66 36 -114t87 -48q66 0 127 70
q-112 119 -184 274z" />
    <glyph glyph-name="quotesingle" unicode="'" horiz-adv-x="403" 
d="M281 819h-160l-35 547h229z" />
    <glyph glyph-name="parenleft" unicode="(" horiz-adv-x="536" 
d="M358 1450l121 -82q-109 -170 -167 -366t-58 -392t58 -391.5t167 -365.5l-121 -82q-142 191 -218.5 408.5t-76.5 430.5t77 431t218 409z" />
    <glyph glyph-name="parenright" unicode=")" horiz-adv-x="536" 
d="M176 -229l-119 82q109 173 167.5 367t58.5 390t-58.5 390.5t-167.5 367.5l119 82q142 -189 219.5 -407.5t77.5 -432.5t-77 -432t-220 -407z" />
    <glyph glyph-name="asterisk" unicode="*" horiz-adv-x="626" 
d="M211 1106l-135 33l47 141l129 -53l-12 139h149l-12 -139l129 53l47 -141l-135 -33l90 -105l-121 -90l-72 121l-73 -121l-121 90z" />
    <glyph glyph-name="plus" unicode="+" 
d="M764 780v-162h-260v-256h-166v256h-260v162h260v250h166v-250h260z" />
    <glyph glyph-name="comma" unicode="," horiz-adv-x="354" 
d="M276 219v-219l-120 -283h-78l90 283h-90v219h198z" />
    <glyph glyph-name="hyphen" unicode="-" horiz-adv-x="292" 
d="M293 604v-170h-293v170h293z" />
    <glyph glyph-name="period" unicode="." horiz-adv-x="354" 
d="M276 219v-219h-198v219h198z" />
    <glyph glyph-name="slash" unicode="/" horiz-adv-x="759" 
d="M541 1366h172l-506 -1503h-172z" />
    <glyph glyph-name="zero" unicode="0" 
d="M764 932v-498q0 -116 -16.5 -190t-55.5 -133q-43 -63 -112.5 -97t-157.5 -34q-183 0 -272 131q-38 59 -55 133.5t-17 189.5v498q0 115 17 189.5t55 133.5q89 131 272 131q88 0 157.5 -34t112.5 -97q39 -59 55.5 -133t16.5 -190zM276 975v-584q0 -69 5 -99.5t20 -60.5
q35 -63 121 -63q84 0 119 63q15 29 19.5 58.5t4.5 101.5v584q0 72 -4.5 101.5t-19.5 58.5q-35 63 -119 63q-86 0 -121 -63q-15 -30 -20 -59.5t-5 -100.5z" />
    <glyph glyph-name="one" unicode="1" 
d="M563 1366v-1366h-198v1044h-197v125q81 34 160.5 91t117.5 106h117z" />
    <glyph glyph-name="two" unicode="2" 
d="M733 184v-184h-665v184q140 184 218.5 291t139 196.5t84.5 146t34.5 103t10.5 105.5q0 172 -131 172q-43 0 -75.5 -22t-49.5 -62q-18 -37 -18 -145h-199q0 116 13 176.5t48 107.5q47 64 121 98.5t164 34.5q155 0 243.5 -95.5t88.5 -264.5q0 -163 -86 -315
q-50 -84 -88 -138t-217 -294q-15 -18 -41 -54t-29 -41h434z" />
    <glyph glyph-name="three" unicode="3" 
d="M362 623v190q64 1 93 11t49 36q37 49 37 144q0 194 -125 194q-60 0 -93.5 -42.5t-35.5 -117.5v-20h-199v18q0 158 91.5 254t242.5 96q152 0 234.5 -98t82.5 -280q0 -123 -36.5 -187t-127.5 -98q103 -31 145 -103t42 -219q0 -203 -92 -311q-94 -110 -258 -110
q-157 0 -249.5 100.5t-92.5 269.5v39h204v-29q0 -92 37 -142t103 -50q143 0 143 229q0 123 -43 173t-152 53z" />
    <glyph glyph-name="four" unicode="4" 
d="M451 346h-422v213l403 807h217v-836h154v-184h-154v-346h-198v346zM451 530v502l-238 -502h238z" />
    <glyph glyph-name="five" unicode="5" 
d="M709 1366v-184h-424l-6 -312q52 45 99.5 64.5t106.5 19.5q145 0 215 -112q34 -57 47 -134t13 -219q0 -155 -15.5 -236t-56.5 -147q-80 -126 -272 -126q-155 0 -239.5 93t-84.5 265q0 27 2 47h197v-35q0 -94 30.5 -138t96.5 -44q44 0 75.5 22.5t43.5 63.5q18 60 18 229
q0 170 -30 236.5t-107 66.5q-45 0 -75 -23.5t-64 -84.5h-183l15 688h598z" />
    <glyph glyph-name="six" unicode="6" 
d="M750 1012h-199v30q0 156 -125 156q-87 0 -115 -63q-17 -33 -22.5 -80t-5.5 -146v-170q44 59 91.5 84t114.5 25q277 0 277 -408q0 -460 -342 -460q-167 0 -252 114q-88 118 -88 365v487q0 114 19.5 189t62.5 133q92 118 260 118q148 0 236 -92t88 -247v-35zM283 575v-186
q0 -221 139 -221q75 0 107 58.5t32 193.5q0 129 -31 184t-104 55q-42 0 -74 -19t-69 -65z" />
    <glyph glyph-name="seven" unicode="7" 
d="M733 1366v-145l-305 -1221h-207l301 1182h-444v184h655z" />
    <glyph glyph-name="eight" unicode="8" 
d="M600 719q90 -37 128 -112.5t38 -217.5q0 -107 -21.5 -180t-68.5 -127q-91 -102 -256 -102t-256 102q-47 54 -68.5 127t-21.5 180q0 142 38 217.5t128 112.5q-84 41 -117 107.5t-33 193.5q0 178 85 272t245 94t245 -94t85 -272q0 -127 -33 -193.5t-117 -107.5zM418 1198
q-129 0 -129 -192q0 -193 131 -193t131 191q0 194 -133 194zM418 618q-139 0 -139 -225t141 -225t141 223q0 117 -34.5 172t-108.5 55z" />
    <glyph glyph-name="nine" unicode="9" 
d="M92 354h199v-30q0 -156 125 -156q86 0 114 63q17 33 23 80.5t6 145.5v170q-44 -59 -92 -84t-115 -25q-276 0 -276 408q0 460 342 460q167 0 252 -114q88 -118 88 -365v-487q0 -114 -19.5 -189t-62.5 -133q-92 -118 -260 -118q-148 0 -236 92t-88 247v35zM559 791v186
q0 221 -139 221q-75 0 -107 -58.5t-32 -193.5q0 -129 31 -184t104 -55q42 0 74 19t69 65z" />
    <glyph glyph-name="colon" unicode=":" horiz-adv-x="354" 
d="M276 219v-219h-198v219h198zM276 1018v-219h-198v219h198z" />
    <glyph glyph-name="semicolon" unicode=";" horiz-adv-x="354" 
d="M276 1018v-219h-198v219h198zM276 219v-219l-120 -283h-78l90 283h-90v219h198z" />
    <glyph glyph-name="less" unicode="&#x3c;" horiz-adv-x="1024" 
d="M954 1210v-206l-665 -316l665 -317v-205l-886 434v176z" />
    <glyph glyph-name="equal" unicode="=" 
d="M764 606v-162h-686v162h686zM764 948v-162h-686v162h686z" />
    <glyph glyph-name="greater" unicode="&#x3e;" horiz-adv-x="1024" 
d="M70 166v207l665 315l-665 318v204l886 -434v-178z" />
    <glyph glyph-name="question" unicode="?" horiz-adv-x="727" 
d="M442 416h-172q-2 33 -2 71q0 138 27.5 232.5t112.5 245.5q33 61 44 91t11 62q0 40 -24 64t-64 24q-47 0 -80 -38t-64 -126l-190 56q46 148 127.5 215t214.5 67q129 0 209 -73t80 -193q0 -58 -21.5 -110t-81.5 -140q-82 -123 -104.5 -191t-22.5 -190v-67zM459 219v-219
h-199v219h199z" />
    <glyph glyph-name="at" unicode="@" horiz-adv-x="964" 
d="M881 362h-129l-25 58q-37 -43 -71.5 -60.5t-80.5 -17.5q-85 0 -125 41.5t-40 130.5v385q0 88 46.5 137t131.5 49q36 0 63 -11.5t60 -41.5v43q0 74 -58 118t-155 44q-100 0 -162 -53q-35 -28 -47.5 -63t-12.5 -107v-637q0 -111 39 -164q69 -82 193 -82q111 0 203 64
l102 -95q-114 -120 -307 -120q-82 0 -160 22.5t-125 60.5q-52 43 -83.5 116t-31.5 153v715q0 164 101 251.5t289 87.5q182 0 283.5 -87t101.5 -242v-695zM580 868v-309q0 -43 14.5 -60.5t50.5 -17.5q37 0 51.5 17.5t14.5 60.5v309q0 44 -14.5 61t-51.5 17t-51 -17t-14 -61z
" />
    <glyph glyph-name="A" unicode="A" horiz-adv-x="923" 
d="M608 297h-291l-55 -297h-207l262 1366h289l277 -1366h-217zM573 492l-112 612l-111 -612h223z" />
    <glyph glyph-name="B" unicode="B" horiz-adv-x="933" 
d="M104 0v1366h316q192 0 295.5 -90t103.5 -256q0 -121 -54.5 -195.5t-170.5 -109.5q138 -40 198 -116.5t60 -211.5q0 -182 -108 -284.5t-298 -102.5h-342zM315 809h76q97 0 155 52t58 140q0 79 -51 127q-49 43 -158 43h-80v-362zM315 195h107q101 0 156 50t55 142
q0 103 -66 165t-176 62h-76v-419z" />
    <glyph glyph-name="C" unicode="C" horiz-adv-x="909" 
d="M829 922h-211v34q0 113 -40.5 172.5t-118.5 59.5q-89 0 -125 -68q-20 -33 -26.5 -72.5t-6.5 -123.5v-455q0 -138 23 -203q15 -41 52 -64.5t85 -23.5q119 0 149 141q11 43 13 160h213v-45q0 -224 -95 -339t-280 -115q-103 0 -182 39t-123 112q-38 63 -52 139t-14 228v383
q0 162 16 238t64 141q91 126 289 126q178 0 274 -112.5t96 -321.5v-30z" />
    <glyph glyph-name="D" unicode="D" horiz-adv-x="921" 
d="M104 0v1366h334q201 0 298.5 -105t97.5 -323v-510q0 -218 -97.5 -323t-298.5 -105h-334zM315 195h105q112 0 157.5 65t45.5 225v396q0 161 -45 225.5t-158 64.5h-105v-976z" />
    <glyph glyph-name="E" unicode="E" horiz-adv-x="763" 
d="M723 1366v-195h-408v-360h301v-195h-301v-421h408v-195h-619v1366h619z" />
    <glyph glyph-name="F" unicode="F" horiz-adv-x="751" 
d="M315 608v-608h-211v1366h625v-195h-414v-368h308v-195h-308z" />
    <glyph glyph-name="G" unicode="G" horiz-adv-x="917" 
d="M451 678h385v-678h-109l-39 117q-52 -73 -112 -105t-144 -32q-94 0 -168 42t-114 117q-34 66 -47 145t-13 220v377q0 162 16.5 239t63.5 140q44 61 119 93.5t170 32.5q116 0 199 -49t126 -143q45 -90 45 -272h-211q0 141 -37.5 203.5t-123.5 62.5q-89 0 -125 -70
q-19 -34 -25 -72.5t-6 -123.5v-418q0 -150 23 -223q17 -48 55 -75.5t88 -27.5q83 0 120.5 65t37.5 206v55h-174v174z" />
    <glyph glyph-name="H" unicode="H" horiz-adv-x="929" 
d="M616 602h-301v-602h-211v1366h211v-569h301v569h211v-1366h-211v602z" />
    <glyph glyph-name="I" unicode="I" horiz-adv-x="419" 
d="M315 1366v-1366h-211v1366h211z" />
    <glyph glyph-name="J" unicode="J" horiz-adv-x="530" 
d="M215 1366h211v-1032q0 -107 -12.5 -162t-46.5 -96q-62 -76 -213 -76h-127v199h49q77 0 108 33.5t31 117.5v1016z" />
    <glyph glyph-name="K" unicode="K" horiz-adv-x="909" 
d="M315 1366v-565l306 565h227l-289 -496l330 -870h-232l-229 645l-113 -190v-455h-211v1366h211z" />
    <glyph glyph-name="L" unicode="L" horiz-adv-x="761" 
d="M315 1366v-1171h420v-195h-631v1366h211z" />
    <glyph glyph-name="M" unicode="M" horiz-adv-x="1202" 
d="M1098 1366v-1366h-201v1006l-238 -1006h-118l-236 1006v-1006h-201v1366h310l188 -858l191 858h305z" />
    <glyph glyph-name="N" unicode="N" horiz-adv-x="964" 
d="M862 1366v-1366h-188l-369 909v-909h-201v1366h213l345 -850v850h200z" />
    <glyph glyph-name="O" unicode="O" horiz-adv-x="925" 
d="M836 932v-498q0 -115 -18 -189.5t-60 -133.5q-93 -131 -295 -131t-295 131q-42 59 -60 133.5t-18 189.5v498q0 115 18 189.5t60 133.5q93 131 295 131t295 -131q42 -59 60 -133.5t18 -189.5zM301 928v-490q0 -79 5.5 -115.5t21.5 -70.5q19 -34 55 -54t80 -20t80 20t55 54
q17 32 22 67t5 119v490q0 84 -5 119t-22 67q-19 34 -55 54t-80 20t-80 -20t-55 -54q-16 -32 -21.5 -69.5t-5.5 -116.5z" />
    <glyph glyph-name="P" unicode="P" horiz-adv-x="890" 
d="M315 553v-553h-211v1366h351q195 0 286 -88q109 -103 109 -320q0 -214 -109 -317q-91 -88 -286 -88h-140zM315 748h93q127 0 175 45.5t48 167.5q0 120 -48 165t-175 45h-93v-423z" />
    <glyph glyph-name="Q" unicode="Q" horiz-adv-x="925" 
d="M897 96v-196q-87 0 -155 29.5t-101 84.5q-86 -34 -182 -34q-95 0 -170 34t-121 97q-41 57 -59.5 132.5t-18.5 190.5v498q0 115 18 189.5t60 133.5q93 131 295 131t295 -131q42 -59 60 -133.5t18 -189.5v-498q0 -184 -52 -280q34 -52 113 -58zM301 928v-490
q0 -79 5.5 -115.5t21.5 -70.5q19 -34 55 -54t80 -20t80 20t55 54q17 32 22 67t5 119v490q0 84 -5 119t-22 67q-19 34 -55 54t-80 20t-80 -20t-55 -54q-16 -32 -21.5 -69.5t-5.5 -116.5z" />
    <glyph glyph-name="R" unicode="R" horiz-adv-x="899" 
d="M315 561v-561h-211v1366h330q176 0 271 -82q122 -104 122 -309q0 -260 -184 -354l201 -621h-221l-181 561h-127zM315 756h78q68 0 103.5 9t60.5 34q51 51 51 166q0 112 -51 163q-25 25 -60.5 34t-103.5 9h-78v-415z" />
    <glyph glyph-name="S" unicode="S" horiz-adv-x="872" 
d="M821 1044l-203 -59q-50 203 -180 203q-59 0 -98 -39.5t-39 -99.5q0 -78 57 -138q23 -25 39 -38.5t94 -73.5q9 -7 15 -11.5t15.5 -12t17.5 -13.5q85 -67 126.5 -104.5t75.5 -79.5q88 -109 88 -250q0 -155 -103.5 -251.5t-270.5 -96.5q-350 0 -414 385l203 59
q40 -246 211 -246q69 0 112 43.5t43 112.5q0 64 -41 118t-161 148q-145 114 -178.5 144t-71.5 79q-76 98 -76 228q0 148 99.5 241.5t256.5 93.5q146 0 243 -86.5t140 -255.5z" />
    <glyph glyph-name="T" unicode="T" horiz-adv-x="768" 
d="M489 1171v-1171h-210v1171h-265v195h742v-195h-267z" />
    <glyph glyph-name="U" unicode="U" horiz-adv-x="929" 
d="M616 1366h211v-926q0 -129 -17 -204.5t-60 -133.5q-90 -122 -283 -122q-195 0 -285 122q-43 59 -60.5 134.5t-17.5 203.5v926h211v-960q0 -121 35 -174.5t115 -53.5q81 0 116 53t35 175v960z" />
    <glyph glyph-name="V" unicode="V" horiz-adv-x="886" 
d="M590 0h-262l-293 1366h219l205 -1038l180 1038h215z" />
    <glyph glyph-name="W" unicode="W" horiz-adv-x="1304" 
d="M1032 0h-196l-177 926l-165 -926h-197l-256 1366h205l155 -881l164 881h183l180 -881l137 881h199z" />
    <glyph glyph-name="X" unicode="X" horiz-adv-x="921" 
d="M573 713l320 -713h-234l-208 498l-193 -498h-231l305 713l-293 653h233l183 -438l170 438h229z" />
    <glyph glyph-name="Y" unicode="Y" horiz-adv-x="901" 
d="M553 532v-532h-211v532l-307 834h233l183 -578l188 578h229z" />
    <glyph glyph-name="Z" unicode="Z" horiz-adv-x="796" 
d="M756 195v-195h-715v199l477 972h-432v195h664v-195l-476 -976h482z" />
    <glyph glyph-name="bracketleft" unicode="[" horiz-adv-x="536" 
d="M455 1366v-178h-160v-1204h160v-179h-355v1561h355z" />
    <glyph glyph-name="backslash" unicode="\" horiz-adv-x="759" 
d="M219 1366l506 -1503h-172l-506 1503h172z" />
    <glyph glyph-name="bracketright" unicode="]" horiz-adv-x="536" 
d="M80 -195v179h162v1204h-162v178h356v-1561h-356z" />
    <glyph glyph-name="asciicircum" unicode="^" horiz-adv-x="1024" 
d="M244 750h-191l342 620h234l342 -620h-191l-270 479z" />
    <glyph glyph-name="underscore" unicode="_" horiz-adv-x="1024" 
d="M0 -135h1024v-131h-1024v131z" />
    <glyph glyph-name="grave" unicode="`" horiz-adv-x="1024" 
d="M596 1184h-143l-148 182h199z" />
    <glyph glyph-name="a" unicode="a" horiz-adv-x="811" 
d="M725 0h-197q-16 46 -16 119q-69 -75 -118.5 -104t-110.5 -29q-97 0 -152 72t-55 198q0 98 40.5 164t135.5 123q50 32 260 123v53q0 78 -23 111.5t-77 33.5t-80.5 -34t-32.5 -111h-201q12 153 99 233t241 80q140 0 209 -78q32 -40 43.5 -86t11.5 -139v-453
q0 -113 4.5 -165t18.5 -111zM512 246v278q-127 -68 -181.5 -127t-54.5 -129q0 -50 27.5 -82t69.5 -32q83 0 139 92z" />
    <glyph glyph-name="b" unicode="b" horiz-adv-x="792" 
d="M88 0v1366h191v-448q63 60 116.5 87t108.5 27q114 0 164 -104q23 -53 32 -116t9 -181v-244q0 -117 -9 -180.5t-32 -116.5q-50 -104 -164 -104q-55 0 -108.5 27t-116.5 87v-100h-191zM279 813v-608q70 -51 133 -51q30 0 54 14.5t34 38.5q12 26 15 56.5t3 111.5v268
q0 81 -3 111.5t-15 56.5q-10 24 -34 38.5t-54 14.5q-63 0 -133 -51z" />
    <glyph glyph-name="c" unicode="c" horiz-adv-x="772" 
d="M715 666h-191v32q0 166 -123 166q-74 0 -101.5 -50t-27.5 -183v-246q0 -127 25 -176q28 -55 104 -55q63 0 93 42.5t30 131.5v32h191v-36q0 -92 -17 -149.5t-55 -100.5q-85 -94 -242 -94q-179 0 -256 106q-35 47 -49 108t-14 166v295q0 105 14 167.5t49 109.5
q77 106 256 106q159 0 242 -92q39 -42 55.5 -98t16.5 -148v-34z" />
    <glyph glyph-name="d" unicode="d" horiz-adv-x="792" 
d="M702 0h-190v100q-63 -60 -116.5 -87t-108.5 -27q-114 0 -164 104q-23 53 -32 116.5t-9 180.5v244q0 118 9 181t32 116q50 104 164 104q55 0 108.5 -27t116.5 -87v448h190v-1366zM512 205v608q-70 51 -133 51q-30 0 -54 -14.5t-34 -38.5q-12 -26 -15.5 -57t-3.5 -111v-268
q0 -80 3.5 -111t15.5 -57q10 -24 34 -38.5t54 -14.5q63 0 133 51z" />
    <glyph glyph-name="e" unicode="e" horiz-adv-x="796" 
d="M713 477h-441v-90q0 -133 27.5 -183t101.5 -50q45 0 75 23t40 67q8 27 8 108h191q-2 -111 -9.5 -157.5t-33.5 -85.5q-78 -129 -271 -129q-179 0 -256 106q-34 48 -48.5 111t-14.5 165v304q0 121 17.5 182.5t64.5 107.5q85 82 231 82q158 0 240 -94q44 -49 61 -114
t17 -185v-168zM522 645v55q0 90 -29.5 130t-95.5 40t-95.5 -40t-29.5 -130v-55h250z" />
    <glyph glyph-name="f" unicode="f" horiz-adv-x="501" 
d="M500 1018v-170h-160v-848h-190v848h-138v170h138v96q0 93 13.5 138.5t49.5 76.5q60 51 174 51q55 0 129 -14v-178q-60 18 -84 18q-52 0 -72 -29t-20 -104v-55h160z" />
    <glyph glyph-name="g" unicode="g" horiz-adv-x="827" 
d="M815 1028v-203q-31 27 -65 27q-45 0 -76 -39q20 -76 20 -166q0 -193 -78 -293t-229 -100q-23 0 -72 6q-45 -22 -45 -59q0 -41 60 -47q63 -8 137 -11q98 -6 149 -17.5t93 -37.5q46 -29 71 -80.5t25 -116.5q0 -130 -99 -191.5t-307 -61.5q-352 0 -352 184q0 60 37.5 99.5
t122.5 68.5q-64 26 -91.5 56.5t-27.5 76.5q0 59 35 94t123 64q-89 47 -129.5 133t-40.5 229q0 191 79.5 290t233.5 99q86 0 143.5 -30t104.5 -99q19 69 60.5 98.5t117.5 26.5zM270 698v-112q0 -164 115 -164t115 164v112q0 166 -115 166t-115 -166zM293 -27q-51 -45 -51 -90
q0 -46 43 -65t143 -19q195 0 195 86q0 58 -82 70q-21 3 -148 8q-52 4 -100 10z" />
    <glyph glyph-name="h" unicode="h" horiz-adv-x="788" 
d="M279 1366v-479q66 77 126 111t127 34q85 0 125.5 -58t40.5 -179v-795h-190v745q0 66 -16 92.5t-56 26.5q-81 0 -157 -102v-762h-191v1366h191z" />
    <glyph glyph-name="i" unicode="i" horiz-adv-x="368" 
d="M279 1018v-1018h-191v1018h191zM279 1366v-199h-191v199h191z" />
    <glyph glyph-name="j" unicode="j" horiz-adv-x="395" 
d="M117 1018h190v-1032q0 -103 -11.5 -153.5t-45.5 -88.5q-73 -86 -217 -86q-41 0 -82 10v185q47 -7 59 -7q59 0 83 40.5t24 140.5v991zM307 1366v-199h-190v199h190z" />
    <glyph glyph-name="k" unicode="k" horiz-adv-x="765" 
d="M279 1366v-756l229 408h217l-207 -332l225 -686h-213l-143 475l-108 -172v-303h-191v1366h191z" />
    <glyph glyph-name="l" unicode="l" horiz-adv-x="368" 
d="M279 1366v-1366h-191v1366h191z" />
    <glyph glyph-name="m" unicode="m" horiz-adv-x="1206" 
d="M279 1018v-131q66 77 126 111t127 34q133 0 160 -145q67 76 128.5 110.5t129.5 34.5q86 0 127 -57.5t41 -179.5v-795h-190v745q0 66 -16 92.5t-56 26.5q-82 0 -158 -102v-762h-190v745q0 66 -16 92.5t-56 26.5q-81 0 -157 -102v-762h-191v1018h191z" />
    <glyph glyph-name="n" unicode="n" horiz-adv-x="788" 
d="M279 1018v-131q66 77 126 111t127 34q85 0 125.5 -58t40.5 -179v-795h-190v745q0 66 -16 92.5t-56 26.5q-81 0 -157 -102v-762h-191v1018h191z" />
    <glyph glyph-name="o" unicode="o" horiz-adv-x="788" 
d="M707 666v-314q0 -120 -17 -182.5t-63 -108.5q-84 -81 -232 -81q-149 0 -233 81q-45 46 -62.5 109t-17.5 182v314q0 119 17.5 181.5t62.5 108.5q85 82 233 82q147 0 232 -82q46 -46 63 -108t17 -182zM272 678v-338q0 -97 29 -141.5t92 -44.5q64 0 93.5 44.5t29.5 141.5
v338q0 98 -29 142t-94 44q-63 0 -92 -44.5t-29 -141.5z" />
    <glyph glyph-name="p" unicode="p" horiz-adv-x="792" 
d="M88 1018h191v-100q63 60 116.5 87t108.5 27q114 0 164 -104q23 -53 32 -116.5t9 -180.5v-244q0 -118 -9 -181t-32 -116q-50 -104 -164 -104q-55 0 -108.5 27t-116.5 87v-448h-191v1366zM279 813v-608q70 -51 133 -51q30 0 54 14.5t34 38.5q12 26 15 56.5t3 111.5v268
q0 81 -3 111.5t-15 56.5q-10 24 -34 38.5t-54 14.5q-62 0 -133 -51z" />
    <glyph glyph-name="q" unicode="q" horiz-adv-x="792" 
d="M702 1018v-1366h-190v448q-63 -60 -116.5 -87t-108.5 -27q-114 0 -164 104q-23 53 -32 116t-9 181v244q0 117 9 180.5t32 116.5q50 104 164 104q55 0 108.5 -27t116.5 -87v100h190zM512 205v608q-71 51 -133 51q-30 0 -54 -14.5t-34 -38.5q-12 -26 -15.5 -57t-3.5 -111
v-268q0 -80 3.5 -111t15.5 -57q10 -24 34 -38.5t54 -14.5q63 0 133 51z" />
    <glyph glyph-name="r" unicode="r" horiz-adv-x="522" 
d="M88 1018h191v-176q38 101 95.5 145.5t147.5 44.5v-221q-48 18 -92 18q-78 0 -119 -53q-20 -26 -26 -58t-6 -106v-612h-191v1018z" />
    <glyph glyph-name="s" unicode="s" horiz-adv-x="741" 
d="M684 793l-174 -76q-31 80 -67 113.5t-91 33.5q-44 0 -72 -25t-28 -65q0 -42 33 -73t139 -89q156 -85 207 -139q71 -74 71 -192q0 -135 -86 -218t-227 -83q-130 0 -214 69t-134 217l178 62q31 -93 70.5 -133.5t99.5 -40.5q47 0 78 29t31 73q0 43 -31 76.5t-113 77.5
q-105 59 -147 87.5t-76 63.5q-74 77 -74 193q0 124 84 204t213 80q122 0 202.5 -59.5t127.5 -185.5z" />
    <glyph glyph-name="t" unicode="t" horiz-adv-x="559" 
d="M535 1018v-170h-175v-543q0 -77 28 -111t91 -34q34 0 74 12v-172q-74 -14 -131 -14q-145 0 -205 75q-28 34 -37.5 80.5t-9.5 143.5v563h-147v170h147v278h190v-278h175z" />
    <glyph glyph-name="u" unicode="u" horiz-adv-x="788" 
d="M698 1018v-1018h-190v131q-66 -76 -126 -110.5t-128 -34.5q-85 0 -125.5 58t-40.5 179v795h191v-746q0 -66 15.5 -92t55.5 -26q82 0 158 102v762h190z" />
    <glyph glyph-name="v" unicode="v" horiz-adv-x="718" 
d="M471 0h-201l-250 1018h203l146 -647l129 647h200z" />
    <glyph glyph-name="w" unicode="w" horiz-adv-x="1105" 
d="M864 0h-180l-131 625l-129 -625h-180l-217 1018h194l123 -635l125 635h174l129 -635l115 635h192z" />
    <glyph glyph-name="x" unicode="x" horiz-adv-x="753" 
d="M487 532l240 -532h-209l-145 360l-144 -360h-202l235 532l-219 486h207l125 -313l119 313h204z" />
    <glyph glyph-name="y" unicode="y" horiz-adv-x="724" 
d="M508 1018h197l-222 -975q-18 -87 -36 -146.5t-43.5 -107t-55 -75t-74 -45.5t-96.5 -24.5t-127 -6.5v196q14 -2 35 -2q77 0 124.5 46.5t47.5 121.5q0 28 -14 88l-224 930h201l150 -694z" />
    <glyph glyph-name="z" unicode="z" horiz-adv-x="698" 
d="M651 184v-184h-604v190l385 644h-352v184h571v-191l-385 -643h385z" />
    <glyph glyph-name="braceleft" unicode="{" horiz-adv-x="600" 
d="M358 997v-176q0 -98 -24.5 -149t-89.5 -86q64 -37 89 -90t25 -152v-172q0 -112 39 -149t158 -39v-177q-173 0 -227 11.5t-97 54.5q-69 69 -69 236v206q0 89 -26 132.5t-91 60.5v162q63 17 90 59.5t27 124.5v231q0 152 74 220q43 40 97.5 50.5t221.5 10.5v-188
q-118 -1 -157.5 -38t-39.5 -143z" />
    <glyph glyph-name="bar" unicode="|" horiz-adv-x="1024" 
d="M408 1366h208v-1708h-208v1708z" />
    <glyph glyph-name="braceright" unicode="}" horiz-adv-x="600" 
d="M244 172v172q0 99 25 152t89 90q-65 35 -89.5 86t-24.5 149v176q0 106 -39.5 143t-157.5 38v188q167 0 222 -10.5t98 -50.5q73 -67 73 -220v-231q0 -82 27 -124.5t90 -59.5v-162q-65 -17 -91 -60.5t-26 -132.5v-206q0 -167 -69 -236q-43 -43 -97 -54.5t-227 -11.5v177
q119 2 158 39t39 149z" />
    <glyph glyph-name="asciitilde" unicode="~" horiz-adv-x="1366" 
d="M299 1169l-106 86q108 246 286 246q72 0 236 -76q84 -41 115.5 -52t62.5 -11q52 0 93.5 34t82.5 111l107 -86q-54 -125 -128.5 -184t-177.5 -59q-39 0 -80.5 15t-156.5 71q-105 51 -166 51q-46 0 -85.5 -34.5t-82.5 -111.5z" />
    <glyph glyph-name="registered" unicode="&#xa0;" horiz-adv-x="1593" 
d="M807 1391q187 0 347.5 -96t254.5 -259.5t94 -353.5q0 -143 -56 -274t-150 -226t-225 -151t-275 -56q-191 0 -354 95t-258 258t-95 354q0 195 95 358t260 257t362 94zM791 1276q-155 0 -288.5 -80t-211.5 -216.5t-78 -295.5q0 -161 78.5 -298t213 -216.5t292.5 -79.5
t292.5 79.5t212.5 216t78 296.5q0 163 -78 300t-213.5 215.5t-297.5 78.5zM729 600v-330h-139v820h203q115 0 176 -61t61 -177q0 -154 -106 -213l120 -369h-145l-106 330h-64zM729 729h39q67 0 93 25.5t26 91.5q0 65 -26 90t-93 25h-39v-232z" />
    <glyph glyph-name="exclamdown" unicode="&#xa1;" horiz-adv-x="444" 
d="M158 604h127l49 -952h-225zM123 799v219h199v-219h-199z" />
    <glyph glyph-name="cent" unicode="&#xa2;" 
d="M367 1413h108v-205q132 -13 196 -94t64 -233v-41h-192q2 14 2 34q0 164 -123 164q-77 0 -105 -55q-24 -47 -24 -178v-246q0 -129 24 -176q13 -26 41 -40.5t62 -14.5q125 0 125 170q0 21 -2 37h192v-43q0 -157 -61.5 -236t-198.5 -98v-221h-108v221q-146 22 -205.5 106
t-59.5 271v294q0 140 30.5 216.5t103.5 121.5q51 32 131 41v205z" />
    <glyph glyph-name="sterling" unicode="&#xa3;" 
d="M625 723v-125h-197q33 -90 33 -172q0 -53 -14 -93.5t-50 -92.5q82 -30 103 -36.5t39 -6.5q41 0 65.5 43t24.5 118h180q0 -171 -62.5 -271.5t-168.5 -100.5q-41 0 -84 13.5t-125 51.5q-53 27 -82 27q-62 0 -133 -98l-129 131q82 149 196 161q51 73 51 148q0 41 -11 78.5
t-40 99.5h-174v125h129q-53 148 -67.5 205t-14.5 119q0 157 91 248t247 91q105 0 183 -46t116 -130q35 -77 35 -215h-197q-3 108 -35 155.5t-102 47.5q-61 0 -98 -39t-37 -104q0 -55 14 -107.5t64 -187.5l12 -37h238z" />
    <glyph glyph-name="currency" unicode="&#xa4;" horiz-adv-x="851" 
d="M690 549l86 -88l-117 -117l-84 84q-71 -39 -147 -39q-73 0 -147 39l-88 -86l-115 115l90 90q-35 69 -35 135q0 76 39 147l-86 86l119 119l88 -90q73 33 135 33q70 0 137 -33l97 96l114 -114l-94 -95q39 -69 39 -147q0 -72 -31 -135zM424 838q-61 0 -107.5 -47t-46.5 -107
q0 -64 46.5 -111t109.5 -47q64 0 111 46t47 108q0 66 -47 112t-113 46z" />
    <glyph glyph-name="yen" unicode="&#xa5;" 
d="M516 584v-584h-201v584h-202v125h157l-233 657h209l172 -580l180 580h203l-240 -657h156v-125h-201z" />
    <glyph glyph-name="logicalnot" unicode="&#xa6;" horiz-adv-x="1024" 
d="M752 0v395h-684v183h886v-578h-202z" />
    <glyph glyph-name="section" unicode="&#xa7;" 
d="M690 1059h-186v45q0 113 -82 113q-29 0 -48.5 -18t-19.5 -44q0 -19 9.5 -34t42.5 -50l286 -330q80 -89 80 -190q0 -172 -178 -242l22 -24q60 -75 60 -166q0 -106 -72 -171t-190 -65q-129 0 -203 72.5t-74 198.5q0 23 4 43h189q-4 -36 -4 -37q0 -47 24.5 -75t65.5 -28
q29 0 47 18.5t18 49.5q0 30 -35 74l-243 270q-81 92 -108 141.5t-27 106.5q0 154 204 223l-20 27q-56 65 -74 102.5t-18 89.5q0 100 73.5 163.5t190.5 63.5q123 0 196.5 -71.5t73.5 -190.5q0 -34 -4 -65zM522 649l-168 189q-49 -23 -70.5 -48t-21.5 -59q0 -42 41 -90
l197 -217q78 35 78 113q0 51 -56 112z" />
    <glyph glyph-name="dieresis" unicode="&#xa8;" horiz-adv-x="1024" 
d="M444 1366v-182h-178v182h178zM758 1366v-182h-178v182h178z" />
    <glyph glyph-name="threequarters" unicode="&#xa9;" horiz-adv-x="1378" 
d="M240 913v127q71 2 94.5 23t23.5 82q0 108 -77 108q-35 0 -56.5 -24t-21.5 -62q0 -12 2 -20h-142v22q0 93 61.5 151t160.5 58q101 0 156 -60.5t55 -170.5q0 -68 -22 -107t-71 -61q56 -17 81.5 -62.5t25.5 -128.5q0 -123 -60.5 -189.5t-170.5 -66.5q-63 0 -114.5 27
t-80.5 74q-31 50 -31 155h144l2 -22q3 -57 22.5 -83t59.5 -26q84 0 84 129q0 72 -26.5 98.5t-98.5 28.5zM377 -68l512 1502h115l-521 -1502h-106zM1108 205h-268v135l260 479h149v-491h101v-123h-101v-205h-141v205zM1112 324v297l-145 -297h145z" />
    <glyph glyph-name="ordfeminine" unicode="&#xaa;" horiz-adv-x="538" 
d="M477 547h-139q-7 17 -12 59q-64 -67 -136 -67q-63 0 -99 44.5t-36 121.5q0 60 26.5 100t86.5 76q36 20 158 69v27q0 44 -12.5 62t-41.5 18q-31 0 -45.5 -19.5t-17.5 -66.5h-141q15 198 221 198q88 0 135 -47q22 -25 29.5 -53t7.5 -86v-266q0 -114 16 -170zM326 700v150
q-69 -35 -99 -68t-30 -71q0 -27 14 -43.5t37 -16.5q46 0 78 49z" />
    <glyph glyph-name="guillemotleft" unicode="&#xab;" horiz-adv-x="632" 
d="M565 190l-211 175v294l211 175v-246l-78 -76l78 -76v-246zM279 190l-211 175v294l211 175v-246l-78 -76l78 -76v-246z" />
    <glyph glyph-name="nbspace" unicode="&#xac;" horiz-adv-x="313" 
 />
    <glyph glyph-name="middot" unicode="&#xad;" horiz-adv-x="354" 
d="M276 629v-219h-198v219h198z" />
    <glyph glyph-name="copyright" unicode="&#xae;" horiz-adv-x="1593" 
d="M807 1391q187 0 347.5 -96t254.5 -259.5t94 -353.5q0 -143 -56 -274t-150 -226t-225 -151t-275 -56q-191 0 -354 95t-258 258t-95 354q0 146 56 277t151.5 226t228.5 150.5t281 55.5zM791 1276q-155 0 -288.5 -80t-211.5 -216.5t-78 -295.5q0 -161 78.5 -298t213 -216.5
t292.5 -79.5t292.5 79.5t212.5 216t78 296.5q0 163 -78 300t-213.5 215.5t-297.5 78.5zM1020 819h-137l-2 23q-3 73 -23.5 104t-64.5 31q-46 0 -65 -33.5t-19 -116.5v-266q0 -94 19 -130t69 -36q49 0 67.5 38t20.5 140h139v-34q0 -134 -58.5 -204.5t-168.5 -70.5
q-131 0 -189 92q-23 38 -31 84t-8 138v225q0 97 10 143t39 84q59 78 177 78q115 0 170 -70.5t55 -218.5z" />
    <glyph glyph-name="macron" unicode="&#xaf;" horiz-adv-x="1024" 
d="M303 1206v137h420v-137h-420z" />
    <glyph glyph-name="sfthyphen" unicode="&#xb0;" horiz-adv-x="292" 
d="M293 604v-170h-293v170h293z" />
    <glyph glyph-name="trademark" unicode="&#xb1;" horiz-adv-x="1193" 
d="M332 1243v-655h-137v655h-154v123h444v-123h-153zM1112 1366v-778h-131v518l-121 -518h-86l-121 518v-518h-131v778h193l102 -444l105 444h190z" />
    <glyph glyph-name="twosuperior" unicode="&#xb2;" horiz-adv-x="567" 
d="M492 668v-123h-441v119q207 247 260.5 331t53.5 162q0 96 -78 96q-41 0 -63.5 -28t-22.5 -80v-29h-142v39q0 104 61.5 163.5t170.5 59.5q103 0 161 -59t58 -162q0 -99 -57 -188q-31 -51 -55.5 -83t-141.5 -173q-11 -15 -37 -45h273z" />
    <glyph glyph-name="threesuperior" unicode="&#xb3;" horiz-adv-x="567" 
d="M240 913v127q71 2 94.5 23t23.5 82q0 108 -77 108q-35 0 -56.5 -24t-21.5 -62q0 -12 2 -20h-142v22q0 93 61.5 151t160.5 58q101 0 156 -60.5t55 -170.5q0 -68 -22 -107t-71 -61q56 -17 81.5 -62.5t25.5 -128.5q0 -123 -60.5 -189.5t-170.5 -66.5q-63 0 -114.5 27
t-80.5 74q-31 50 -31 155h144l2 -22q3 -57 22.5 -83t59.5 -26q84 0 84 129q0 72 -26.5 98.5t-98.5 28.5z" />
    <glyph glyph-name="acute" unicode="&#xb4;" horiz-adv-x="1024" 
d="M414 1184l94 182h197l-148 -182h-143z" />
    <glyph glyph-name="brokenbar" unicode="&#xb5;" horiz-adv-x="1024" 
d="M408 1366h208v-696h-208v696zM408 313h208v-655h-208v655z" />
    <glyph glyph-name="paragraph" unicode="&#xb6;" horiz-adv-x="856" 
d="M387 -205v860q-129 4 -217 106t-88 247q0 157 97 257.5t249 100.5h352v-61h-82v-1510h-98v1510h-113v-1510h-100z" />
    <glyph glyph-name="periodcentered" unicode="&#xb7;" horiz-adv-x="354" 
d="M276 629v-219h-198v219h198z" />
    <glyph glyph-name="cedilla" unicode="&#xb8;" horiz-adv-x="1024" 
d="M594 -94v-139l-45 -115h-96l34 115h-57v139h164z" />
    <glyph glyph-name="onesuperior" unicode="&#xb9;" horiz-adv-x="567" 
d="M383 1366v-819h-141v616h-127v86q56 22 107.5 54.5t74.5 62.5h86z" />
    <glyph glyph-name="ordmasculine" unicode="&#xba;" horiz-adv-x="524" 
d="M463 946v-186q0 -72 -11 -109.5t-42 -66.5q-52 -49 -148 -49q-98 0 -149 51q-31 28 -42.5 65.5t-11.5 108.5v186q0 72 11.5 110t42.5 66q52 52 149 52q96 0 148 -52q31 -28 42 -65t11 -111zM195 952v-198q0 -54 16 -78.5t51 -24.5q66 0 66 103v198q0 55 -16 80t-50 25
q-35 0 -51 -25t-16 -80z" />
    <glyph glyph-name="guillemotright" unicode="&#xbb;" horiz-adv-x="632" 
d="M68 834l211 -175v-294l-211 -175v246l77 76l-77 76v246zM354 834l211 -175v-294l-211 -175v246l78 76l-78 76v246z" />
    <glyph glyph-name="onehalf" unicode="&#xbc;" horiz-adv-x="1378" 
d="M383 1366v-819h-141v616h-127v86q56 22 107.5 54.5t74.5 62.5h86zM375 -68l512 1502h117l-523 -1502h-106zM1303 123v-123h-441v119q144 171 206 253.5t85 133.5t23 106q0 95 -78 95q-41 0 -63.5 -28t-22.5 -79v-29h-142v39q0 103 61.5 162t170.5 59q101 0 160 -59
t59 -160q0 -99 -57 -188q-31 -51 -55.5 -83t-141.5 -173l-37 -45h273z" />
    <glyph glyph-name="plusminus" unicode="&#xbd;" 
d="M764 260v-162h-686v162h686zM764 774v-162h-260v-258h-166v258h-260v162h260v250h166v-250h260z" />
    <glyph glyph-name="onequarter" unicode="&#xbe;" horiz-adv-x="1378" 
d="M383 1366v-819h-141v616h-127v86q56 22 107.5 54.5t74.5 62.5h86zM375 -68l512 1502h117l-523 -1502h-106zM1108 205h-270v135l262 479h149v-491h99v-123h-99v-205h-141v205zM1112 324v297l-147 -297h147z" />
    <glyph glyph-name="questiondown" unicode="&#xbf;" horiz-adv-x="727" 
d="M285 602h174v-63q0 -147 -27 -240.5t-113 -245.5q-33 -61 -44 -91t-11 -62q0 -40 24 -64t64 -24q48 0 81.5 38t62.5 125l190 -55q-44 -147 -126 -214.5t-216 -67.5q-129 0 -209 73t-80 193q0 58 21.5 110t81.5 140q64 96 88 149.5t32 114t7 184.5zM268 799v219h199v-219
h-199z" />
    <glyph glyph-name="Agrave" unicode="&#xc0;" horiz-adv-x="923" 
d="M608 297h-291l-55 -297h-207l262 1366h289l277 -1366h-217zM573 492l-112 612l-111 -612h223zM547 1475h-144l-147 182h199z" />
    <glyph glyph-name="Aacute" unicode="&#xc1;" horiz-adv-x="923" 
d="M608 297h-291l-55 -297h-207l262 1366h289l277 -1366h-217zM573 492l-112 612l-111 -612h223zM365 1475l94 182h196l-147 -182h-143z" />
    <glyph glyph-name="Acircumflex" unicode="&#xc2;" horiz-adv-x="923" 
d="M608 297h-291l-55 -297h-207l262 1366h289l277 -1366h-217zM573 492l-112 612l-111 -612h223zM356 1657h213l129 -182h-172l-63 69l-64 -69h-172z" />
    <glyph glyph-name="Atilde" unicode="&#xc3;" horiz-adv-x="923" 
d="M608 297h-291l-55 -297h-207l262 1366h289l277 -1366h-217zM573 492l-112 612l-111 -612h223zM258 1485v141q55 31 117 31q40 0 92 -17q62 -24 102 -24q23 0 42 7t57 30v-144q-37 -21 -56 -27.5t-43 -6.5q-40 0 -102 24q-52 17 -92 17q-62 0 -117 -31z" />
    <glyph glyph-name="Adieresis" unicode="&#xc4;" horiz-adv-x="923" 
d="M608 297h-291l-55 -297h-207l262 1366h289l277 -1366h-217zM573 492l-112 612l-111 -612h223zM401 1657v-182h-178v182h178zM715 1657v-182h-178v182h178z" />
    <glyph glyph-name="Aring" unicode="&#xc5;" horiz-adv-x="923" 
d="M608 297h-291l-55 -297h-207l262 1366h289l277 -1366h-217zM573 492l-112 612l-111 -612h223zM467 1733q61 0 105 -41.5t44 -100.5q0 -60 -43.5 -101.5t-105.5 -41.5q-63 0 -107.5 41.5t-44.5 101.5q0 59 44.5 100.5t107.5 41.5zM465 1661q-29 0 -51.5 -21t-22.5 -49
q0 -29 22 -50t54 -21q31 0 52.5 21t21.5 50t-22 49.5t-54 20.5z" />
    <glyph glyph-name="AE" unicode="&#xc6;" horiz-adv-x="1300" 
d="M641 297h-293l-112 -297h-228l520 1366h732v-195h-408v-360h299v-195h-299v-421h408v-195h-619v297zM641 492v612l-221 -612h221z" />
    <glyph glyph-name="Ccedilla" unicode="&#xc7;" horiz-adv-x="909" 
d="M829 922h-211v34q0 113 -40.5 172.5t-118.5 59.5q-89 0 -125 -68q-20 -33 -26.5 -72.5t-6.5 -123.5v-455q0 -138 23 -203q15 -41 52 -64.5t85 -23.5q119 0 149 141q11 43 13 160h213v-45q0 -224 -95 -339t-280 -115q-103 0 -182 39t-123 112q-38 63 -52 139t-14 228v383
q0 162 16 238t64 141q91 126 289 126q178 0 274 -112.5t96 -321.5v-30zM545 -94v-139l-45 -115h-97l35 115h-57v139h164z" />
    <glyph glyph-name="Egrave" unicode="&#xc8;" horiz-adv-x="763" 
d="M723 1366v-195h-408v-360h301v-195h-301v-421h408v-195h-619v1366h619zM467 1475h-143l-148 182h199z" />
    <glyph glyph-name="Eacute" unicode="&#xc9;" horiz-adv-x="763" 
d="M723 1366v-195h-408v-360h301v-195h-301v-421h408v-195h-619v1366h619zM285 1475l94 182h196l-147 -182h-143z" />
    <glyph glyph-name="Ecircumflex" unicode="&#xca;" horiz-adv-x="763" 
d="M723 1366v-195h-408v-360h301v-195h-301v-421h408v-195h-619v1366h619zM276 1657h213l129 -182h-172l-63 69l-64 -69h-172z" />
    <glyph glyph-name="Edieresis" unicode="&#xcb;" horiz-adv-x="763" 
d="M723 1366v-195h-408v-360h301v-195h-301v-421h408v-195h-619v1366h619zM315 1657v-182h-178v182h178zM629 1657v-182h-178v182h178z" />
    <glyph glyph-name="Igrave" unicode="&#xcc;" horiz-adv-x="419" 
d="M315 1366v-1366h-211v1366h211zM293 1475h-143l-148 182h199z" />
    <glyph glyph-name="Iacute" unicode="&#xcd;" horiz-adv-x="419" 
d="M315 1366v-1366h-211v1366h211zM113 1475l94 182h196l-147 -182h-143z" />
    <glyph glyph-name="Icircumflex" unicode="&#xce;" horiz-adv-x="419" 
d="M313 1366v-1366h-211v1366h211zM102 1657h213l129 -182h-172l-63 69l-64 -69h-172z" />
    <glyph glyph-name="Idieresis" unicode="&#xcf;" horiz-adv-x="419" 
d="M315 1366v-1366h-211v1366h211zM156 1657v-182h-179v182h179zM442 1657v-182h-178v182h178z" />
    <glyph glyph-name="Eth" unicode="&#xd0;" horiz-adv-x="929" 
d="M111 0v616h-48v195h48v555h333q201 0 298.5 -105t97.5 -323v-512q0 -217 -97.5 -321.5t-298.5 -104.5h-333zM322 195h102q114 0 159.5 65t45.5 225v396q0 160 -45.5 225t-159.5 65h-102v-360h157v-195h-157v-421z" />
    <glyph glyph-name="Ntilde" unicode="&#xd1;" horiz-adv-x="964" 
d="M862 1366v-1366h-188l-369 909v-909h-201v1366h213l345 -850v850h200zM279 1485v141q55 31 116 31q40 0 92 -17q62 -24 103 -24q23 0 41.5 7t56.5 30v-144q-38 -21 -56 -27.5t-42 -6.5q-41 0 -103 24q-52 17 -92 17q-61 0 -116 -31z" />
    <glyph glyph-name="Ograve" unicode="&#xd2;" horiz-adv-x="925" 
d="M836 932v-498q0 -115 -18 -189.5t-60 -133.5q-93 -131 -295 -131t-295 131q-42 59 -60 133.5t-18 189.5v498q0 115 18 189.5t60 133.5q93 131 295 131t295 -131q42 -59 60 -133.5t18 -189.5zM301 928v-490q0 -79 5.5 -115.5t21.5 -70.5q19 -34 55 -54t80 -20t80 20t55 54
q17 32 22 67t5 119v490q0 84 -5 119t-22 67q-19 34 -55 54t-80 20t-80 -20t-55 -54q-16 -32 -21.5 -69.5t-5.5 -116.5zM547 1475h-144l-147 182h199z" />
    <glyph glyph-name="Oacute" unicode="&#xd3;" horiz-adv-x="925" 
d="M836 932v-498q0 -115 -18 -189.5t-60 -133.5q-93 -131 -295 -131t-295 131q-42 59 -60 133.5t-18 189.5v498q0 115 18 189.5t60 133.5q93 131 295 131t295 -131q42 -59 60 -133.5t18 -189.5zM301 928v-490q0 -79 5.5 -115.5t21.5 -70.5q19 -34 55 -54t80 -20t80 20t55 54
q17 32 22 67t5 119v490q0 84 -5 119t-22 67q-19 34 -55 54t-80 20t-80 -20t-55 -54q-16 -32 -21.5 -69.5t-5.5 -116.5zM365 1475l94 182h196l-147 -182h-143z" />
    <glyph glyph-name="Ocircumflex" unicode="&#xd4;" horiz-adv-x="925" 
d="M836 932v-498q0 -115 -18 -189.5t-60 -133.5q-93 -131 -295 -131t-295 131q-42 59 -60 133.5t-18 189.5v498q0 115 18 189.5t60 133.5q93 131 295 131t295 -131q42 -59 60 -133.5t18 -189.5zM301 928v-490q0 -79 5.5 -115.5t21.5 -70.5q19 -34 55 -54t80 -20t80 20t55 54
q17 32 22 67t5 119v490q0 84 -5 119t-22 67q-19 34 -55 54t-80 20t-80 -20t-55 -54q-16 -32 -21.5 -69.5t-5.5 -116.5zM356 1657h213l129 -182h-172l-63 69l-64 -69h-172z" />
    <glyph glyph-name="Otilde" unicode="&#xd5;" horiz-adv-x="925" 
d="M836 932v-498q0 -115 -18 -189.5t-60 -133.5q-93 -131 -295 -131t-295 131q-42 59 -60 133.5t-18 189.5v498q0 115 18 189.5t60 133.5q93 131 295 131t295 -131q42 -59 60 -133.5t18 -189.5zM301 928v-490q0 -79 5.5 -115.5t21.5 -70.5q19 -34 55 -54t80 -20t80 20t55 54
q17 32 22 67t5 119v490q0 84 -5 119t-22 67q-19 34 -55 54t-80 20t-80 -20t-55 -54q-16 -32 -21.5 -69.5t-5.5 -116.5zM258 1485v141q55 31 117 31q40 0 92 -17q62 -24 102 -24q23 0 42 7t57 30v-144q-37 -21 -56 -27.5t-43 -6.5q-40 0 -102 24q-52 17 -92 17
q-62 0 -117 -31z" />
    <glyph glyph-name="Odieresis" unicode="&#xd6;" horiz-adv-x="925" 
d="M836 932v-498q0 -115 -18 -189.5t-60 -133.5q-93 -131 -295 -131t-295 131q-42 59 -60 133.5t-18 189.5v498q0 115 18 189.5t60 133.5q93 131 295 131t295 -131q42 -59 60 -133.5t18 -189.5zM301 928v-490q0 -79 5.5 -115.5t21.5 -70.5q19 -34 55 -54t80 -20t80 20t55 54
q17 32 22 67t5 119v490q0 84 -5 119t-22 67q-19 34 -55 54t-80 20t-80 -20t-55 -54q-16 -32 -21.5 -69.5t-5.5 -116.5zM395 1657v-182h-178v182h178zM709 1657v-182h-179v182h179z" />
    <glyph glyph-name="minus" unicode="&#xd7;" 
d="M764 780v-162h-686v162h686z" />
    <glyph glyph-name="Oslash" unicode="&#xd8;" horiz-adv-x="925" 
d="M664 1409h108l-41 -121q57 -62 81 -143t24 -213v-498q0 -115 -18 -189.5t-60 -133.5q-46 -63 -122 -97t-171 -34q-101 0 -182 36l-21 -61h-108l43 123q-60 64 -83.5 143.5t-23.5 212.5v498q0 115 18 189.5t60 133.5q93 131 295 131q104 0 180 -36zM301 379l270 770
q-44 41 -110 41q-43 0 -78.5 -20.5t-54.5 -55.5q-16 -32 -21.5 -69t-5.5 -117v-549zM625 985l-271 -766q44 -41 109 -41q44 0 80 20t55 54q17 32 22 67t5 119v547z" />
    <glyph glyph-name="Ugrave" unicode="&#xd9;" horiz-adv-x="929" 
d="M616 1366h211v-926q0 -129 -17 -204.5t-60 -133.5q-90 -122 -283 -122q-195 0 -285 122q-43 59 -60.5 134.5t-17.5 203.5v926h211v-960q0 -121 35 -174.5t115 -53.5q81 0 116 53t35 175v960zM549 1475h-143l-148 182h199z" />
    <glyph glyph-name="Uacute" unicode="&#xda;" horiz-adv-x="929" 
d="M616 1366h211v-926q0 -129 -17 -204.5t-60 -133.5q-90 -122 -283 -122q-195 0 -285 122q-43 59 -60.5 134.5t-17.5 203.5v926h211v-960q0 -121 35 -174.5t115 -53.5q81 0 116 53t35 175v960zM367 1475l94 182h196l-147 -182h-143z" />
    <glyph glyph-name="Ucircumflex" unicode="&#xdb;" horiz-adv-x="929" 
d="M616 1366h211v-926q0 -129 -17 -204.5t-60 -133.5q-90 -122 -283 -122q-195 0 -285 122q-43 59 -60.5 134.5t-17.5 203.5v926h211v-960q0 -121 35 -174.5t115 -53.5q81 0 116 53t35 175v960zM358 1657h213l129 -182h-172l-63 69l-64 -69h-172z" />
    <glyph glyph-name="Udieresis" unicode="&#xdc;" horiz-adv-x="929" 
d="M616 1366h211v-926q0 -129 -17 -204.5t-60 -133.5q-90 -122 -283 -122q-195 0 -285 122q-43 59 -60.5 134.5t-17.5 203.5v926h211v-960q0 -121 35 -174.5t115 -53.5q81 0 116 53t35 175v960zM397 1657v-182h-178v182h178zM711 1657v-182h-179v182h179z" />
    <glyph glyph-name="Yacute" unicode="&#xdd;" horiz-adv-x="901" 
d="M553 532v-532h-211v532l-307 834h233l183 -578l188 578h229zM354 1475l95 182h196l-147 -182h-144z" />
    <glyph glyph-name="Thorn" unicode="&#xde;" horiz-adv-x="890" 
d="M315 342v-342h-211v1366h211v-213h140q195 0 286 -88q109 -103 109 -317q0 -215 -109 -318q-91 -88 -286 -88h-140zM315 537h93q127 0 175 45.5t48 165.5t-48 165t-175 45h-93v-421z" />
    <glyph glyph-name="germandbls" unicode="&#xdf;" horiz-adv-x="790" 
d="M279 0h-191v1006q0 107 15.5 168.5t54.5 109.5q78 96 215 96q120 0 194 -73.5t74 -192.5q0 -62 -23 -105.5t-75 -78.5q67 -24 101.5 -67.5t48.5 -123.5t14 -227q0 -174 -16 -270.5t-54 -151.5q-35 -51 -81 -72.5t-118 -21.5q-34 0 -59 4v186q10 -2 24 -2q62 0 82.5 64
t20.5 254q0 108 -6 168.5t-25.5 99t-50 50.5t-86.5 14v184q59 0 86 23.5t27 74.5q0 40 -22.5 65t-59.5 25q-90 0 -90 -155v-1051z" />
    <glyph glyph-name="agrave" unicode="&#xe0;" horiz-adv-x="811" 
d="M725 0h-197q-16 46 -16 119q-69 -75 -118.5 -104t-110.5 -29q-97 0 -152 72t-55 198q0 98 40.5 164t135.5 123q50 32 260 123v53q0 78 -23 111.5t-77 33.5t-80.5 -34t-32.5 -111h-201q12 153 99 233t241 80q140 0 209 -78q32 -40 43.5 -86t11.5 -139v-453
q0 -113 4.5 -165t18.5 -111zM512 246v278q-127 -68 -181.5 -127t-54.5 -129q0 -50 27.5 -82t69.5 -32q83 0 139 92zM489 1184h-143l-147 182h198z" />
    <glyph glyph-name="aacute" unicode="&#xe1;" horiz-adv-x="811" 
d="M725 0h-197q-16 46 -16 119q-69 -75 -118.5 -104t-110.5 -29q-97 0 -152 72t-55 198q0 98 40.5 164t135.5 123q50 32 260 123v53q0 78 -23 111.5t-77 33.5t-80.5 -34t-32.5 -111h-201q12 153 99 233t241 80q140 0 209 -78q32 -40 43.5 -86t11.5 -139v-453
q0 -113 4.5 -165t18.5 -111zM512 246v278q-127 -68 -181.5 -127t-54.5 -129q0 -50 27.5 -82t69.5 -32q83 0 139 92zM307 1184l94 182h197l-147 -182h-144z" />
    <glyph glyph-name="acircumflex" unicode="&#xe2;" horiz-adv-x="811" 
d="M725 0h-197q-16 46 -16 119q-69 -75 -118.5 -104t-110.5 -29q-97 0 -152 72t-55 198q0 98 40.5 164t135.5 123q50 32 260 123v53q0 78 -23 111.5t-77 33.5t-80.5 -34t-32.5 -111h-201q12 153 99 233t241 80q140 0 209 -78q32 -40 43.5 -86t11.5 -139v-453
q0 -113 4.5 -165t18.5 -111zM512 246v278q-127 -68 -181.5 -127t-54.5 -129q0 -50 27.5 -82t69.5 -32q83 0 139 92zM299 1366h213l129 -182h-172l-63 69l-64 -69h-172z" />
    <glyph glyph-name="atilde" unicode="&#xe3;" horiz-adv-x="811" 
d="M725 0h-197q-16 46 -16 119q-69 -75 -118.5 -104t-110.5 -29q-97 0 -152 72t-55 198q0 98 40.5 164t135.5 123q50 32 260 123v53q0 78 -23 111.5t-77 33.5t-80.5 -34t-32.5 -111h-201q12 153 99 233t241 80q140 0 209 -78q32 -40 43.5 -86t11.5 -139v-453
q0 -113 4.5 -165t18.5 -111zM512 246v278q-127 -68 -181.5 -127t-54.5 -129q0 -50 27.5 -82t69.5 -32q83 0 139 92zM201 1194v141q55 31 118 31q42 0 91 -16q68 -23 102 -23q23 0 41 6.5t57 28.5v-141q-36 -22 -55 -28.5t-43 -6.5q-37 0 -102 22q-52 17 -91 17
q-63 0 -118 -31z" />
    <glyph glyph-name="adieresis" unicode="&#xe4;" horiz-adv-x="811" 
d="M725 0h-197q-16 46 -16 119q-69 -75 -118.5 -104t-110.5 -29q-97 0 -152 72t-55 198q0 98 40.5 164t135.5 123q50 32 260 123v53q0 78 -23 111.5t-77 33.5t-80.5 -34t-32.5 -111h-201q12 153 99 233t241 80q140 0 209 -78q32 -40 43.5 -86t11.5 -139v-453
q0 -113 4.5 -165t18.5 -111zM512 246v278q-127 -68 -181.5 -127t-54.5 -129q0 -50 27.5 -82t69.5 -32q83 0 139 92zM346 1366v-182h-178v182h178zM659 1366v-182h-178v182h178z" />
    <glyph glyph-name="aring" unicode="&#xe5;" horiz-adv-x="811" 
d="M725 0h-197q-16 46 -16 119q-69 -75 -118.5 -104t-110.5 -29q-97 0 -152 72t-55 198q0 98 40.5 164t135.5 123q50 32 260 123v53q0 78 -23 111.5t-77 33.5t-80.5 -34t-32.5 -111h-201q12 153 99 233t241 80q140 0 209 -78q32 -40 43.5 -86t11.5 -139v-453
q0 -113 4.5 -165t18.5 -111zM512 246v278q-127 -68 -181.5 -127t-54.5 -129q0 -50 27.5 -82t69.5 -32q83 0 139 92zM416 1417q61 0 105 -42t44 -99q0 -61 -43.5 -103.5t-105.5 -42.5q-63 0 -107.5 42.5t-44.5 101.5q0 60 44.5 101.5t107.5 41.5zM414 1346q-31 0 -52.5 -21.5
t-21.5 -50.5q0 -30 22 -51t54 -21q30 0 51.5 21t21.5 51q0 31 -21.5 51.5t-53.5 20.5z" />
    <glyph glyph-name="ae" unicode="&#xe6;" horiz-adv-x="1226" 
d="M1143 477h-441v-90q0 -133 27.5 -183t101.5 -50q45 0 75 23t40 67q8 27 8 108h191q-2 -109 -9.5 -155t-33.5 -86q-78 -125 -271 -125q-187 0 -266 116q-73 -64 -131.5 -90t-128.5 -26q-109 0 -169 71.5t-60 200.5q0 97 40.5 162.5t135.5 122.5q67 41 260 123v53
q0 78 -23 111.5t-77 33.5t-80.5 -34t-32.5 -111h-201q12 152 99 232.5t239 80.5q123 0 187 -53q79 53 202 53q160 0 240 -92q43 -50 60.5 -114.5t17.5 -180.5v-168zM512 246v278q-127 -67 -181.5 -126t-54.5 -130q0 -50 27.5 -82t69.5 -32q81 0 139 92zM952 645v55
q0 91 -29.5 131.5t-95.5 40.5t-95.5 -40.5t-29.5 -131.5v-55h250z" />
    <glyph glyph-name="ccedilla" unicode="&#xe7;" horiz-adv-x="772" 
d="M715 666h-191v32q0 166 -123 166q-74 0 -101.5 -50t-27.5 -183v-246q0 -127 25 -176q28 -55 104 -55q63 0 93 42.5t30 131.5v32h191v-36q0 -92 -17 -149.5t-55 -100.5q-85 -94 -242 -94q-179 0 -256 106q-35 47 -49 108t-14 166v295q0 105 14 167.5t49 109.5
q77 106 256 106q159 0 242 -92q39 -42 55.5 -98t16.5 -148v-34zM481 -94v-139l-45 -115h-96l35 115h-58v139h164z" />
    <glyph glyph-name="egrave" unicode="&#xe8;" horiz-adv-x="796" 
d="M713 477h-441v-90q0 -133 27.5 -183t101.5 -50q45 0 75 23t40 67q8 27 8 108h191q-2 -111 -9.5 -157.5t-33.5 -85.5q-78 -129 -271 -129q-179 0 -256 106q-34 48 -48.5 111t-14.5 165v304q0 121 17.5 182.5t64.5 107.5q85 82 231 82q158 0 240 -94q44 -49 61 -114
t17 -185v-168zM522 645v55q0 90 -29.5 130t-95.5 40t-95.5 -40t-29.5 -130v-55h250zM483 1184h-143l-147 182h198z" />
    <glyph glyph-name="eacute" unicode="&#xe9;" horiz-adv-x="796" 
d="M713 477h-441v-90q0 -133 27.5 -183t101.5 -50q45 0 75 23t40 67q8 27 8 108h191q-2 -111 -9.5 -157.5t-33.5 -85.5q-78 -129 -271 -129q-179 0 -256 106q-34 48 -48.5 111t-14.5 165v304q0 121 17.5 182.5t64.5 107.5q85 82 231 82q158 0 240 -94q44 -49 61 -114
t17 -185v-168zM522 645v55q0 90 -29.5 130t-95.5 40t-95.5 -40t-29.5 -130v-55h250zM301 1184l94 182h197l-148 -182h-143z" />
    <glyph glyph-name="ecircumflex" unicode="&#xea;" horiz-adv-x="796" 
d="M713 477h-441v-90q0 -133 27.5 -183t101.5 -50q45 0 75 23t40 67q8 27 8 108h191q-2 -111 -9.5 -157.5t-33.5 -85.5q-78 -129 -271 -129q-179 0 -256 106q-34 48 -48.5 111t-14.5 165v304q0 121 17.5 182.5t64.5 107.5q85 82 231 82q158 0 240 -94q44 -49 61 -114
t17 -185v-168zM522 645v55q0 90 -29.5 130t-95.5 40t-95.5 -40t-29.5 -130v-55h250zM293 1366h213l129 -182h-172l-64 69l-63 -69h-172z" />
    <glyph glyph-name="edieresis" unicode="&#xeb;" horiz-adv-x="796" 
d="M713 477h-441v-90q0 -133 27.5 -183t101.5 -50q45 0 75 23t40 67q8 27 8 108h191q-2 -111 -9.5 -157.5t-33.5 -85.5q-78 -129 -271 -129q-179 0 -256 106q-34 48 -48.5 111t-14.5 165v304q0 121 17.5 182.5t64.5 107.5q85 82 231 82q158 0 240 -94q44 -49 61 -114
t17 -185v-168zM522 645v55q0 90 -29.5 130t-95.5 40t-95.5 -40t-29.5 -130v-55h250zM332 1366v-182h-178v182h178zM645 1366v-182h-178v182h178z" />
    <glyph glyph-name="igrave" unicode="&#xec;" horiz-adv-x="368" 
d="M281 1018v-1018h-191v1018h191zM268 1184h-143l-148 182h199z" />
    <glyph glyph-name="iacute" unicode="&#xed;" horiz-adv-x="368" 
d="M279 1018v-1018h-191v1018h191zM86 1184l94 182h197l-148 -182h-143z" />
    <glyph glyph-name="icircumflex" unicode="&#xee;" horiz-adv-x="368" 
d="M279 1018v-1018h-191v1018h191zM78 1366h213l129 -182h-172l-64 69l-63 -69h-172z" />
    <glyph glyph-name="idieresis" unicode="&#xef;" horiz-adv-x="368" 
d="M281 1018v-1018h-191v1018h191zM131 1366v-182h-178v182h178zM418 1366v-182h-178v182h178z" />
    <glyph glyph-name="eth" unicode="&#xf0;" horiz-adv-x="788" 
d="M477 1337l109 99l59 -68l-104 -94q86 -98 126 -215.5t40 -270.5v-436q0 -120 -17 -182.5t-63 -108.5q-84 -81 -232 -81q-149 0 -233 81q-45 46 -62.5 109t-17.5 182v279q0 113 10.5 176.5t36.5 114.5q51 102 178 102q100 0 209 -84q-13 70 -32.5 117.5t-59.5 111.5
l-98 -86l-60 66l101 88q-17 18 -35.5 35.5t-24.5 23.5l94 99q38 -25 76 -58zM272 678v-338q0 -97 29 -141.5t92 -44.5q64 0 93.5 44.5t29.5 141.5v338q0 98 -29 142t-94 44q-63 0 -92 -44.5t-29 -141.5z" />
    <glyph glyph-name="ntilde" unicode="&#xf1;" horiz-adv-x="788" 
d="M279 1018v-131q66 77 126 111t127 34q85 0 125.5 -58t40.5 -179v-795h-190v745q0 66 -16 92.5t-56 26.5q-81 0 -157 -102v-762h-191v1018h191zM188 1194v141q55 31 119 31q41 0 90 -16q68 -23 103 -23q23 0 41 6.5t57 28.5v-141q-36 -22 -55 -28.5t-43 -6.5
q-38 0 -103 22q-52 17 -90 17q-64 0 -119 -31z" />
    <glyph glyph-name="ograve" unicode="&#xf2;" horiz-adv-x="788" 
d="M707 666v-314q0 -120 -17 -182.5t-63 -108.5q-84 -81 -232 -81q-149 0 -233 81q-45 46 -62.5 109t-17.5 182v314q0 119 17.5 181.5t62.5 108.5q85 82 233 82q147 0 232 -82q46 -46 63 -108t17 -182zM272 678v-338q0 -97 29 -141.5t92 -44.5q64 0 93.5 44.5t29.5 141.5
v338q0 98 -29 142t-94 44q-63 0 -92 -44.5t-29 -141.5zM477 1184h-143l-148 182h199z" />
    <glyph glyph-name="oacute" unicode="&#xf3;" horiz-adv-x="788" 
d="M707 666v-314q0 -120 -17 -182.5t-63 -108.5q-84 -81 -232 -81q-149 0 -233 81q-45 46 -62.5 109t-17.5 182v314q0 119 17.5 181.5t62.5 108.5q85 82 233 82q147 0 232 -82q46 -46 63 -108t17 -182zM272 678v-338q0 -97 29 -141.5t92 -44.5q64 0 93.5 44.5t29.5 141.5
v338q0 98 -29 142t-94 44q-63 0 -92 -44.5t-29 -141.5zM297 1184l94 182h197l-148 -182h-143z" />
    <glyph glyph-name="ocircumflex" unicode="&#xf4;" horiz-adv-x="788" 
d="M707 666v-314q0 -120 -17 -182.5t-63 -108.5q-84 -81 -232 -81q-149 0 -233 81q-45 46 -62.5 109t-17.5 182v314q0 119 17.5 181.5t62.5 108.5q85 82 233 82q147 0 232 -82q46 -46 63 -108t17 -182zM272 678v-338q0 -97 29 -141.5t92 -44.5q64 0 93.5 44.5t29.5 141.5
v338q0 98 -29 142t-94 44q-63 0 -92 -44.5t-29 -141.5zM287 1366h213l129 -182h-172l-64 69l-63 -69h-172z" />
    <glyph glyph-name="otilde" unicode="&#xf5;" horiz-adv-x="788" 
d="M707 666v-314q0 -120 -17 -182.5t-63 -108.5q-84 -81 -232 -81q-149 0 -233 81q-45 46 -62.5 109t-17.5 182v314q0 119 17.5 181.5t62.5 108.5q85 82 233 82q147 0 232 -82q46 -46 63 -108t17 -182zM272 678v-338q0 -97 29 -141.5t92 -44.5q64 0 93.5 44.5t29.5 141.5
v338q0 98 -29 142t-94 44q-63 0 -92 -44.5t-29 -141.5zM188 1194v141q55 31 119 31q41 0 90 -16q68 -23 103 -23q23 0 41 6.5t57 28.5v-141q-36 -22 -55 -28.5t-43 -6.5q-38 0 -103 22q-52 17 -90 17q-64 0 -119 -31z" />
    <glyph glyph-name="odieresis" unicode="&#xf6;" horiz-adv-x="788" 
d="M707 666v-314q0 -120 -17 -182.5t-63 -108.5q-84 -81 -232 -81q-149 0 -233 81q-45 46 -62.5 109t-17.5 182v314q0 119 17.5 181.5t62.5 108.5q85 82 233 82q147 0 232 -82q46 -46 63 -108t17 -182zM272 678v-338q0 -97 29 -141.5t92 -44.5q64 0 93.5 44.5t29.5 141.5
v338q0 98 -29 142t-94 44q-63 0 -92 -44.5t-29 -141.5zM326 1366v-182h-179v182h179zM639 1366v-182h-178v182h178z" />
    <glyph glyph-name="multiply" unicode="&#xf7;" 
d="M604 999l115 -114l-184 -185l182 -180l-119 -119l-180 181l-185 -183l-114 115l184 184l-178 176l119 119l176 -178z" />
    <glyph glyph-name="oslash" unicode="&#xf8;" horiz-adv-x="788" 
d="M543 1100h94l-39 -119q65 -53 87 -116.5t22 -198.5v-314q0 -120 -17 -182.5t-63 -108.5q-84 -81 -232 -81q-63 0 -127 18l-26 -80h-97l41 123q-61 51 -82.5 115t-21.5 196v314q0 120 17 181.5t63 108.5q85 82 235 82q71 0 119 -18zM272 299l185 549q-31 16 -62 16
q-65 0 -94 -44t-29 -142v-379zM516 735l-188 -561q29 -20 67 -20q63 0 92 44.5t29 141.5v395z" />
    <glyph glyph-name="ugrave" unicode="&#xf9;" horiz-adv-x="788" 
d="M698 1018v-1018h-190v131q-66 -76 -126 -110.5t-128 -34.5q-85 0 -125.5 58t-40.5 179v795h191v-746q0 -66 15.5 -92t55.5 -26q82 0 158 102v762h190zM477 1184h-143l-148 182h199z" />
    <glyph glyph-name="uacute" unicode="&#xfa;" horiz-adv-x="788" 
d="M698 1018v-1018h-190v131q-66 -76 -126 -110.5t-128 -34.5q-85 0 -125.5 58t-40.5 179v795h191v-746q0 -66 15.5 -92t55.5 -26q82 0 158 102v762h190zM295 1184l94 182h197l-148 -182h-143z" />
    <glyph glyph-name="ucircumflex" unicode="&#xfb;" horiz-adv-x="788" 
d="M698 1018v-1018h-190v131q-66 -76 -126 -110.5t-128 -34.5q-85 0 -125.5 58t-40.5 179v795h191v-746q0 -66 15.5 -92t55.5 -26q82 0 158 102v762h190zM287 1366h213l129 -182h-172l-64 69l-63 -69h-172z" />
    <glyph glyph-name="udieresis" unicode="&#xfc;" horiz-adv-x="788" 
d="M698 1018v-1018h-190v131q-66 -76 -126 -110.5t-128 -34.5q-85 0 -125.5 58t-40.5 179v795h191v-746q0 -66 15.5 -92t55.5 -26q82 0 158 102v762h190zM326 1366v-182h-179v182h179zM639 1366v-182h-178v182h178z" />
    <glyph glyph-name="yacute" unicode="&#xfd;" horiz-adv-x="724" 
d="M508 1018h197l-222 -975q-18 -87 -36 -146.5t-43.5 -107t-55 -75t-74 -45.5t-96.5 -24.5t-127 -6.5v196q14 -2 35 -2q77 0 124.5 46.5t47.5 121.5q0 28 -14 88l-224 930h201l150 -694zM264 1184l94 182h197l-147 -182h-144z" />
    <glyph glyph-name="thorn" unicode="&#xfe;" horiz-adv-x="792" 
d="M88 1366h191v-448q63 60 116.5 87t108.5 27q114 0 164 -104q23 -53 32 -116.5t9 -180.5v-244q0 -118 -9 -181t-32 -116q-50 -104 -164 -104q-55 0 -108.5 27t-116.5 87v-448h-191v1714zM279 813v-608q70 -51 133 -51q30 0 54 14.5t34 38.5q12 26 15 56.5t3 111.5v268
q0 81 -3 111.5t-15 56.5q-10 24 -34 38.5t-54 14.5q-62 0 -133 -51z" />
    <glyph glyph-name="ydieresis" unicode="&#xff;" horiz-adv-x="724" 
d="M508 1018h197l-222 -975q-18 -87 -36 -146.5t-43.5 -107t-55 -75t-74 -45.5t-96.5 -24.5t-127 -6.5v196q14 -2 35 -2q77 0 124.5 46.5t47.5 121.5q0 28 -14 88l-224 930h201l150 -694zM295 1366v-182h-178v182h178zM608 1366v-182h-178v182h178z" />
    <glyph glyph-name="dotlessi" unicode="&#x131;" horiz-adv-x="368" 
d="M279 1018v-1018h-191v1018h191z" />
    <glyph glyph-name="Lslash" unicode="&#x141;" horiz-adv-x="720" 
d="M272 913l150 117v-207l-150 -116v-512h420v-195h-631v571l-55 -41v207l55 41v588h211v-453z" />
    <glyph glyph-name="lslash" unicode="&#x142;" horiz-adv-x="446" 
d="M324 920l92 71v-194l-92 -70v-727h-191v600l-92 -70v193l92 72v571h191v-446z" />
    <glyph glyph-name="OE" unicode="&#x152;" horiz-adv-x="1267" 
d="M1227 1366v-195h-410v-360h301v-195h-301v-421h410v-195h-742q-201 0 -298 104.5t-97 321.5v512q0 218 97 323t298 105h742zM606 1171h-102q-112 0 -157.5 -65t-45.5 -225v-396q0 -160 45.5 -225t157.5 -65h102v976z" />
    <glyph glyph-name="oe" unicode="&#x153;" horiz-adv-x="1230" 
d="M1147 477h-440v-69q0 -131 14 -177q27 -77 115 -77q91 0 112 90q8 27 8 108h193q-2 -111 -9.5 -157.5t-33.5 -85.5q-38 -63 -107.5 -96t-162.5 -33q-140 0 -224 69q-87 -69 -217 -69q-149 0 -233 81q-45 46 -62.5 109t-17.5 182v314q0 119 17.5 181.5t62.5 108.5
q85 82 231 82q138 0 219 -69q84 69 217 69q155 0 240 -94q43 -48 60.5 -114t17.5 -185v-168zM272 678v-338q0 -97 29 -141.5t92 -44.5q64 0 93.5 44.5t29.5 141.5v338q0 98 -29 142t-94 44q-63 0 -92 -44.5t-29 -141.5zM954 645v55q0 90 -29 130t-94 40q-66 0 -95 -39.5
t-29 -130.5v-55h247z" />
    <glyph glyph-name="Scaron" unicode="&#x160;" horiz-adv-x="872" 
d="M821 1044l-203 -59q-50 203 -180 203q-59 0 -98 -39.5t-39 -99.5q0 -78 57 -138q23 -25 39 -38.5t94 -73.5q9 -7 15 -11.5t15.5 -12t17.5 -13.5q85 -67 126.5 -104.5t75.5 -79.5q88 -109 88 -250q0 -155 -103.5 -251.5t-270.5 -96.5q-350 0 -414 385l203 59
q40 -246 211 -246q69 0 112 43.5t43 112.5q0 64 -41 118t-161 148q-145 114 -178.5 144t-71.5 79q-76 98 -76 228q0 148 99.5 241.5t256.5 93.5q146 0 243 -86.5t140 -255.5zM543 1475h-213l-129 182h172l63 -70l64 70h172z" />
    <glyph glyph-name="scaron" unicode="&#x161;" horiz-adv-x="741" 
d="M684 793l-174 -76q-31 80 -67 113.5t-91 33.5q-44 0 -72 -25t-28 -65q0 -42 33 -73t139 -89q156 -85 207 -139q71 -74 71 -192q0 -135 -86 -218t-227 -83q-130 0 -214 69t-134 217l178 62q31 -93 70.5 -133.5t99.5 -40.5q47 0 78 29t31 73q0 43 -31 76.5t-113 77.5
q-105 59 -147 87.5t-76 63.5q-74 77 -74 193q0 124 84 204t213 80q122 0 202.5 -59.5t127.5 -185.5zM477 1184h-213l-129 182h172l64 -70l63 70h172z" />
    <glyph glyph-name="Ydieresis" unicode="&#x178;" horiz-adv-x="901" 
d="M553 532v-532h-211v532l-307 834h233l183 -578l188 578h229zM383 1657v-182h-178v182h178zM696 1657v-182h-178v182h178z" />
    <glyph glyph-name="Zcaron" unicode="&#x17d;" horiz-adv-x="796" 
d="M756 195v-195h-715v199l477 972h-432v195h664v-195l-476 -976h482zM504 1475h-213l-129 182h172l63 -70l64 70h172z" />
    <glyph glyph-name="zcaron" unicode="&#x17e;" horiz-adv-x="698" 
d="M651 184v-184h-604v190l385 644h-352v184h571v-191l-385 -643h385zM455 1184h-213l-129 182h172l63 -70l64 70h172z" />
    <glyph glyph-name="florin" unicode="&#x192;" 
d="M715 973l-25 -125h-184l-234 -1196h-190l231 1196h-163l24 125h164l55 278q17 90 40.5 136t66.5 77q70 52 184 52q43 0 123 -13l-35 -178q-52 16 -80 16q-51 0 -76.5 -28.5t-40.5 -102.5l-45 -237h185z" />
    <glyph glyph-name="circumflex" unicode="&#x2c6;" horiz-adv-x="1024" 
d="M406 1366h212l130 -182h-173l-63 69l-63 -69h-173z" />
    <glyph glyph-name="caron" unicode="&#x2c7;" horiz-adv-x="1024" 
d="M618 1184h-212l-130 182h173l63 -70l63 70h173z" />
    <glyph glyph-name="breve" unicode="&#x2d8;" horiz-adv-x="1024" 
d="M623 1362l122 -70q-76 -102 -233 -102q-160 0 -236 102l123 70q59 -37 113 -37q55 0 111 37z" />
    <glyph glyph-name="dotaccent" unicode="&#x2d9;" horiz-adv-x="1024" 
d="M602 1366v-182h-178v182h178z" />
    <glyph glyph-name="ring" unicode="&#x2da;" horiz-adv-x="1024" 
d="M514 1417q61 0 105.5 -42t44.5 -99q0 -61 -44 -103.5t-106 -42.5q-63 0 -107.5 42.5t-44.5 101.5q0 60 44.5 101.5t107.5 41.5zM512 1346q-31 0 -52.5 -21.5t-21.5 -50.5q0 -30 22 -51t54 -21q31 0 52.5 21.5t21.5 50.5q0 31 -22 51.5t-54 20.5z" />
    <glyph glyph-name="ogonek" unicode="&#x2db;" horiz-adv-x="1024" 
d="M528 0h107q-100 -81 -100 -156t98 -75q31 0 61 12l-16 -117q-43 -14 -80 -14q-85 0 -135.5 40.5t-50.5 108.5q0 53 27.5 100t88.5 101z" />
    <glyph glyph-name="tilde" unicode="&#x2dc;" horiz-adv-x="1024" 
d="M307 1194v141q55 31 119 31q41 0 90 -16q68 -23 102 -23q23 0 42 6.5t57 28.5v-141q-59 -35 -99 -35q-37 0 -102 22q-52 17 -90 17q-64 0 -119 -31z" />
    <glyph glyph-name="hungarumlaut" unicode="&#x2dd;" horiz-adv-x="1024" 
d="M285 1184l94 182h196l-147 -182h-143zM571 1184l95 182h196l-147 -182h-144z" />
    <glyph glyph-name="endash" unicode="&#x2013;" 
d="M764 604v-170h-686v170h686z" />
    <glyph glyph-name="emdash" unicode="&#x2014;" horiz-adv-x="1030" 
d="M1030 604v-170h-1030v170h1030z" />
    <glyph glyph-name="quoteleft" unicode="&#x2018;" horiz-adv-x="362" 
d="M82 864v219l121 283h78l-91 -283h91v-219h-199z" />
    <glyph glyph-name="quoteright" unicode="&#x2019;" horiz-adv-x="362" 
d="M281 1366v-219l-121 -283h-78l90 283h-90v219h199z" />
    <glyph glyph-name="quotesinglbase" unicode="&#x201a;" horiz-adv-x="362" 
d="M281 219v-219l-121 -283h-78l90 283h-90v219h199z" />
    <glyph glyph-name="quotedblleft" unicode="&#x201c;" horiz-adv-x="661" 
d="M381 864v219l121 283h78l-91 -283h91v-219h-199zM82 864v219l121 283h78l-91 -283h91v-219h-199z" />
    <glyph glyph-name="quotedblright" unicode="&#x201d;" horiz-adv-x="661" 
d="M281 1366v-219l-121 -283h-78l90 283h-90v219h199zM580 1366v-219l-121 -283h-78l90 283h-90v219h199z" />
    <glyph glyph-name="quotedblbase" unicode="&#x201e;" horiz-adv-x="661" 
d="M281 219v-219l-121 -283h-78l90 283h-90v219h199zM580 219v-219l-121 -283h-78l90 283h-90v219h199z" />
    <glyph glyph-name="dagger" unicode="&#x2020;" 
d="M516 1366v-338h258v-170h-258v-858h-190v858h-258v170h258v338h190z" />
    <glyph glyph-name="daggerdbl" unicode="&#x2021;" 
d="M516 1366v-338h258v-170h-258v-350h258v-170h-258v-338h-190v338h-258v170h258v350h-258v170h258v338h190z" />
    <glyph glyph-name="bullet" unicode="&#x2022;" horiz-adv-x="1366" 
d="M690 979q114 0 196.5 -83.5t82.5 -199.5q0 -118 -83 -201t-200 -83t-201 82.5t-84 199.5q0 120 83.5 202.5t205.5 82.5z" />
    <glyph glyph-name="ellipsis" unicode="&#x2026;" horiz-adv-x="1064" 
d="M276 219v-219h-198v219h198zM631 219v-219h-199v219h199zM985 219v-219h-199v219h199z" />
    <glyph glyph-name="perthousand" unicode="&#x2030;" horiz-adv-x="1576" 
d="M440 1141v-254q0 -238 -188 -238q-191 0 -191 238v254q0 121 47 180t144 59q95 0 141.5 -59t46.5 -180zM184 1163v-297q0 -61 15 -84.5t53 -23.5q37 0 51 23.5t14 84.5v297q0 62 -14 85.5t-51 23.5q-38 0 -53 -24t-15 -85zM776 1366h113l-565 -1366h-113zM1038 479v-254
q0 -239 -188 -239t-188 239v254q0 238 188 238t188 -238zM784 500v-297q0 -61 14.5 -85t51.5 -24t51 23.5t14 85.5v297q0 61 -14 84.5t-51 23.5t-51.5 -23.5t-14.5 -84.5zM1516 479v-254q0 -239 -189 -239q-188 0 -188 239v254q0 238 188 238q189 0 189 -238zM1262 500v-297
q0 -62 14 -85.5t51 -23.5t51.5 24t14.5 85v297q0 61 -14.5 84.5t-51.5 23.5t-51 -23.5t-14 -84.5z" />
    <glyph glyph-name="guilsinglleft" unicode="&#x2039;" horiz-adv-x="346" 
d="M279 190l-211 175v294l211 175v-246l-78 -76l78 -76v-246z" />
    <glyph glyph-name="guilsinglright" unicode="&#x203a;" horiz-adv-x="346" 
d="M68 834l211 -175v-294l-211 -175v246l77 76l-77 76v246z" />
    <glyph glyph-name="fraction" unicode="&#x2044;" horiz-adv-x="245" 
d="M-190 -68l512 1502h114l-520 -1502h-106z" />
    <glyph glyph-name="divide" unicode="&#x2122;" 
d="M764 780v-162h-686v162h686zM506 508v-186h-170v186h170zM506 1071v-186h-170v186h170z" />
    <glyph glyph-name="degree" unicode="&#x2212;" horiz-adv-x="778" 
d="M395 1380q119 0 204 -87t85 -208q0 -123 -85.5 -208.5t-207.5 -85.5q-123 0 -209 85t-86 207q0 125 86.5 211t212.5 86zM387 1241q-61 0 -107.5 -47t-46.5 -109q0 -64 46.5 -110.5t109.5 -46.5q64 0 111 46t47 109q0 66 -47 112t-113 46z" />
    <glyph glyph-name="fi" unicode="&#xfb01;" horiz-adv-x="849" 
d="M150 0v848h-138v170h138v96q0 93 13.5 138.5t49.5 76.5q59 51 186 51q68 0 211 -14v-178q-114 18 -172 18q-57 0 -77.5 -27.5t-20.5 -105.5v-55h420v-1018h-191v848h-229v-848h-190z" />
    <glyph glyph-name="fl" unicode="&#xfb02;" horiz-adv-x="849" 
d="M485 1018v-170h-145v-848h-190v848h-138v170h138v96q0 92 14 139t49 76q63 51 164 51q33 0 123 -8q46 -6 69 -6h191v-1366h-191v1190q-85 16 -139 16q-51 0 -70.5 -29t-19.5 -104v-55h145z" />
    <glyph glyph-name="mu" horiz-adv-x="788" 
d="M508 1018h190v-1018h-190v117q-51 -131 -139 -131q-31 0 -51 14t-39 49v-397h-191v1366h191v-723q0 -85 21.5 -120.5t72.5 -35.5q77 0 135 127v752z" />
    </font>
</defs>
</svg>
